<?xml version="1.0" encoding="utf-8"?>
<!-- Generator: Adobe Illustrator 24.0.3, SVG Export Plug-In . SVG Version: 6.00 Build 0)  -->
<svg version="1.1" id="Layer_1" xmlns="http://www.w3.org/2000/svg" xmlns:xlink="http://www.w3.org/1999/xlink" x="0px" y="0px"
	 viewBox="0 0 755 833" style="enable-background:new 0 0 755 833;" xml:space="preserve">
<style type="text/css">
	.st0{fill:#4F64F2;}
	.st1{fill:none;}
	.st2{fill:#FFFFFF;}
</style>
<path class="st0" d="M378.2,141.7l117.67,25.16l152.2,2.4l-38.37,404.96c-81.21,91.65-232.13,137.18-231.49,137.78
	c0.64,0.6-151.56-35.34-237.89-138.98L104.5,169.26h148.36L378.2,141.7z"/>
<g>
	<path class="st1" d="M416.85,329.23c0-0.11,0.01-0.22,0.01-0.32c0-21.67-18.4-39.24-41.11-39.24s-41.11,17.57-41.11,39.24
		c0,0.11,0.01,0.22,0.01,0.32h-0.01v50.71h82.21L416.85,329.23L416.85,329.23z"/>
	<path class="st2" d="M334.65,329.23L334.65,329.23c0.01-0.11,0-0.22,0-0.32c0-21.67,18.4-39.24,41.11-39.24
		s41.11,17.57,41.11,39.24c0,0.11-0.01,0.22-0.01,0.32h0.01v50.71h46.2v-41.41h-0.75c0.05-1.15,0.07-2.3,0.07-3.46
		c0-45.86-38.94-83.03-86.97-83.03c-48.03,0-86.97,37.17-86.97,83.03c0,1.16,0.03,2.31,0.07,3.46h-0.07v41.41h46.2V329.23z"/>
	<g>
		<path class="st2" d="M273.05,379.94c-19.25,0-35,15.75-35,35v105.83c0,19.25,15.75,35,35,35h198.58c19.25,0,35-15.75,35-35V414.94
			c0-19.25-15.75-35-35-35H273.05z"/>
	</g>
</g>
<path class="st0" d="M375.54,422.31c-15.19,0-27.5,11.75-27.5,26.25c0,9.33,5.11,17.5,12.79,22.15v37.06
	c0,8.09,6.87,14.65,15.35,14.65s15.35-6.56,15.35-14.65v-37.89c6.96-4.76,11.51-12.53,11.51-21.33
	C403.03,434.06,390.72,422.31,375.54,422.31z"/>
</svg>
